<svg width="152" height="43" viewBox="0 0 152 43" fill="none" xmlns="http://www.w3.org/2000/svg">
<path d="M151.595 0L149.377 28.4578H139.368L138.34 0H151.595ZM149.809 36.7896C149.809 37.5831 149.656 38.3225 149.35 39.0078C149.043 39.6931 148.628 40.2882 148.105 40.7932C147.6 41.3162 147.005 41.7219 146.32 42.0105C145.634 42.317 144.904 42.4703 144.129 42.4703C143.335 42.4703 142.596 42.317 141.91 42.0105C141.225 41.7219 140.621 41.3162 140.098 40.7932C139.593 40.2882 139.187 39.6931 138.881 39.0078C138.592 38.3225 138.448 37.5831 138.448 36.7896C138.448 36.0141 138.592 35.2747 138.881 34.5714C139.187 33.8681 139.593 33.2639 140.098 32.759C140.621 32.236 141.225 31.8212 141.91 31.5146C142.596 31.208 143.335 31.0547 144.129 31.0547C144.904 31.0547 145.634 31.208 146.32 31.5146C147.005 31.8212 147.6 32.236 148.105 32.759C148.628 33.2639 149.043 33.8681 149.35 34.5714C149.656 35.2747 149.809 36.0141 149.809 36.7896Z" fill="white"/>
<path d="M136.446 21.0999C136.446 22.741 136.257 24.328 135.878 25.8609C135.499 27.3758 134.949 28.8005 134.228 30.135C133.525 31.4695 132.659 32.6958 131.631 33.814C130.621 34.914 129.476 35.8608 128.195 36.6543C126.933 37.4478 125.554 38.07 124.057 38.5209C122.56 38.9537 120.973 39.1701 119.296 39.1701C117.673 39.1701 116.122 38.9627 114.643 38.5479C113.182 38.1331 111.812 37.556 110.531 36.8166C109.251 36.0592 108.087 35.1575 107.041 34.1115C106.014 33.0475 105.13 31.8753 104.39 30.5949C103.669 29.2964 103.101 27.9078 102.686 26.429C102.289 24.9502 102.091 23.4083 102.091 21.8032C102.091 20.2343 102.28 18.7014 102.659 17.2045C103.038 15.6897 103.579 14.265 104.282 12.9305C105.004 11.5959 105.869 10.3696 106.879 9.2515C107.889 8.13339 109.016 7.16856 110.261 6.35702C111.523 5.54549 112.885 4.9143 114.345 4.46344C115.806 4.01259 117.348 3.78716 118.971 3.78716C121.586 3.78716 123.966 4.19293 126.113 5.00447C128.277 5.816 130.116 6.9792 131.631 8.49407C133.164 9.9909 134.345 11.8123 135.175 13.9584C136.022 16.0864 136.446 18.4669 136.446 21.0999ZM124.435 21.8032C124.435 21.0278 124.318 20.2794 124.084 19.558C123.867 18.8186 123.543 18.1694 123.11 17.6103C122.677 17.0332 122.136 16.5733 121.487 16.2307C120.856 15.87 120.125 15.6897 119.296 15.6897C118.448 15.6897 117.691 15.843 117.023 16.1495C116.356 16.4561 115.779 16.8799 115.292 17.421C114.823 17.9439 114.463 18.5661 114.21 19.2875C113.958 19.9908 113.831 20.7392 113.831 21.5327C113.831 22.2902 113.94 23.0476 114.156 23.805C114.372 24.5625 114.697 25.2478 115.13 25.8609C115.563 26.4741 116.095 26.97 116.726 27.3487C117.375 27.7274 118.123 27.9168 118.971 27.9168C119.819 27.9168 120.576 27.7545 121.243 27.4299C121.929 27.0872 122.506 26.6364 122.975 26.0773C123.444 25.5002 123.804 24.842 124.057 24.1026C124.309 23.3632 124.435 22.5967 124.435 21.8032Z" fill="white"/>
<path d="M101.117 21.0999C101.117 22.741 100.928 24.328 100.549 25.8609C100.17 27.3758 99.6204 28.8005 98.8991 30.135C98.1957 31.4695 97.3301 32.6958 96.3022 33.814C95.2923 34.914 94.1471 35.8608 92.8667 36.6543C91.6043 37.4478 90.2247 38.07 88.7278 38.5209C87.231 38.9537 85.644 39.1701 83.9668 39.1701C82.3438 39.1701 80.7928 38.9627 79.314 38.5479C77.8533 38.1331 76.4827 37.556 75.2023 36.8166C73.9218 36.0592 72.7586 35.1575 71.7127 34.1115C70.6847 33.0475 69.801 31.8753 69.0616 30.5949C68.3403 29.2964 67.7722 27.9078 67.3574 26.429C66.9607 24.9502 66.7623 23.4083 66.7623 21.8032C66.7623 20.2343 66.9517 18.7014 67.3304 17.2045C67.7091 15.6897 68.2501 14.265 68.9534 12.9305C69.6748 11.5959 70.5404 10.3696 71.5503 9.2515C72.5603 8.13339 73.6874 7.16856 74.9317 6.35702C76.1941 5.54549 77.5557 4.9143 79.0165 4.46344C80.4772 4.01259 82.0191 3.78716 83.6422 3.78716C86.2572 3.78716 88.6377 4.19293 90.7837 5.00447C92.9478 5.816 94.7873 6.9792 96.3022 8.49407C97.8351 9.9909 99.0163 11.8123 99.8459 13.9584C100.693 16.0864 101.117 18.4669 101.117 21.0999ZM89.1066 21.8032C89.1066 21.0278 88.9893 20.2794 88.7549 19.558C88.5385 18.8186 88.2139 18.1694 87.7811 17.6103C87.3482 17.0332 86.8072 16.5733 86.158 16.2307C85.5268 15.87 84.7964 15.6897 83.9668 15.6897C83.1192 15.6897 82.3618 15.843 81.6945 16.1495C81.0273 16.4561 80.4502 16.8799 79.9633 17.421C79.4944 17.9439 79.1337 18.5661 78.8812 19.2875C78.6287 19.9908 78.5025 20.7392 78.5025 21.5327C78.5025 22.2902 78.6107 23.0476 78.8271 23.805C79.0435 24.5625 79.3681 25.2478 79.801 25.8609C80.2338 26.4741 80.7658 26.97 81.397 27.3487C82.0462 27.7274 82.7946 27.9168 83.6422 27.9168C84.4898 27.9168 85.2473 27.7545 85.9145 27.4299C86.5998 27.0872 87.1769 26.6364 87.6458 26.0773C88.1147 25.5002 88.4754 24.842 88.7278 24.1026C88.9803 23.3632 89.1066 22.5967 89.1066 21.8032Z" fill="white"/>
<path d="M65.7884 21.0999C65.7884 22.741 65.5991 24.328 65.2204 25.8609C64.8417 27.3758 64.2916 28.8005 63.5702 30.135C62.8669 31.4695 62.0013 32.6958 60.9733 33.814C59.9634 34.914 58.8183 35.8608 57.5378 36.6543C56.2755 37.4478 54.8958 38.07 53.399 38.5209C51.9022 38.9537 50.3152 39.1701 48.638 39.1701C47.0149 39.1701 45.464 38.9627 43.9852 38.5479C42.5244 38.1331 41.1538 37.556 39.8734 36.8166C38.593 36.0592 37.4298 35.1575 36.3838 34.1115C35.3559 33.0475 34.4722 31.8753 33.7328 30.5949C33.0114 29.2964 32.4434 27.9078 32.0286 26.429C31.6318 24.9502 31.4335 23.4083 31.4335 21.8032C31.4335 20.2343 31.6228 18.7014 32.0015 17.2045C32.3802 15.6897 32.9213 14.265 33.6246 12.9305C34.346 11.5959 35.2116 10.3696 36.2215 9.2515C37.2314 8.13339 38.3586 7.16856 39.6029 6.35702C40.8653 5.54549 42.2269 4.9143 43.6876 4.46344C45.1484 4.01259 46.6903 3.78716 48.3134 3.78716C50.9283 3.78716 53.3088 4.19293 55.4549 5.00447C57.619 5.816 59.4585 6.9792 60.9733 8.49407C62.5062 9.9909 63.6875 11.8123 64.517 13.9584C65.3646 16.0864 65.7884 18.4669 65.7884 21.0999ZM53.7777 21.8032C53.7777 21.0278 53.6605 20.2794 53.4261 19.558C53.2097 18.8186 52.885 18.1694 52.4522 17.6103C52.0194 17.0332 51.4784 16.5733 50.8291 16.2307C50.198 15.87 49.4676 15.6897 48.638 15.6897C47.7904 15.6897 47.033 15.843 46.3657 16.1495C45.6984 16.4561 45.1214 16.8799 44.6344 17.421C44.1655 17.9439 43.8049 18.5661 43.5524 19.2875C43.2999 19.9908 43.1737 20.7392 43.1737 21.5327C43.1737 22.2902 43.2819 23.0476 43.4983 23.805C43.7147 24.5625 44.0393 25.2478 44.4721 25.8609C44.9049 26.4741 45.4369 26.97 46.0681 27.3487C46.7174 27.7274 47.4658 27.9168 48.3134 27.9168C49.161 27.9168 49.9184 27.7545 50.5857 27.4299C51.271 27.0872 51.8481 26.6364 52.317 26.0773C52.7859 25.5002 53.1465 24.842 53.399 24.1026C53.6515 23.3632 53.7777 22.5967 53.7777 21.8032Z" fill="white"/>
<path d="M31.4335 30.5678C31.4335 32.0647 31.1539 33.3541 30.5949 34.4361C30.0539 35.5182 29.3235 36.4379 28.4037 37.1954C27.484 37.9528 26.42 38.575 25.2117 39.0619C24.0214 39.5308 22.7771 39.9005 21.4786 40.171C20.1802 40.4415 18.8727 40.6218 17.5562 40.712C16.2578 40.8022 15.0404 40.8473 13.9043 40.8473C12.7862 40.8473 11.623 40.8022 10.4147 40.712C9.22445 40.6399 8.0342 40.5046 6.84395 40.3062C5.65369 40.1079 4.48148 39.8464 3.32729 39.5218C2.17311 39.1791 1.08205 38.7553 0.0541023 38.2504L0 3.40845C1.00991 2.99366 2.08294 2.62396 3.21909 2.29935C4.35524 1.9567 5.50942 1.67717 6.68164 1.46076C7.87189 1.22632 9.05312 1.055 10.2253 0.946791C11.3976 0.820552 12.5337 0.757433 13.6338 0.757433C14.9142 0.757433 16.2036 0.838586 17.5021 1.00089C18.8186 1.1632 20.081 1.43371 21.2893 1.81243C22.4976 2.19114 23.6247 2.68708 24.6707 3.30024C25.7166 3.89537 26.6274 4.63477 27.4028 5.51844C28.1963 6.40211 28.8095 7.43005 29.2423 8.60227C29.6932 9.77449 29.9186 11.127 29.9186 12.6599C29.9186 13.6699 29.7743 14.6166 29.4858 15.5003C29.1972 16.384 28.7824 17.1775 28.2414 17.8808C27.7004 18.5842 27.0422 19.1883 26.2667 19.6933C25.4912 20.1802 24.6166 20.5409 23.6427 20.7753C24.8149 21.0819 25.879 21.5327 26.8348 22.1279C27.8086 22.723 28.6292 23.4443 29.2964 24.292C29.9817 25.1396 30.5047 26.0954 30.8654 27.1594C31.2441 28.2234 31.4335 29.3595 31.4335 30.5678ZM17.6915 15.1487C17.6915 14.6257 17.5833 14.1838 17.3668 13.8231C17.1504 13.4444 16.8799 13.1379 16.5553 12.9034C16.2487 12.669 15.9061 12.4976 15.5274 12.3894C15.1667 12.2812 14.8421 12.2271 14.5535 12.2271C14.1928 12.2271 13.8412 12.2812 13.4985 12.3894C13.1559 12.4976 12.8223 12.6239 12.4976 12.7682L12.3353 18.7735C12.7501 18.7735 13.2641 18.7374 13.8772 18.6653C14.4904 18.5932 15.0765 18.4399 15.6356 18.2054C16.2127 17.953 16.6996 17.5923 17.0963 17.1234C17.4931 16.6365 17.6915 15.9782 17.6915 15.1487ZM13.8502 23.9673C13.3272 23.9673 12.8223 24.0214 12.3353 24.1296L12.2271 30.2973C12.4976 30.3514 12.7591 30.4055 13.0116 30.4596C13.2821 30.4957 13.5436 30.5137 13.7961 30.5137C14.1748 30.5137 14.5896 30.4777 15.0405 30.4055C15.4913 30.3153 15.9151 30.153 16.3119 29.9186C16.7086 29.6661 17.0332 29.3325 17.2857 28.9177C17.5562 28.5029 17.6915 27.9529 17.6915 27.2676C17.6915 26.5823 17.5562 26.0232 17.2857 25.5904C17.0332 25.1576 16.7176 24.824 16.3389 24.5895C15.9602 24.337 15.5454 24.1747 15.0946 24.1026C14.6437 24.0124 14.2289 23.9673 13.8502 23.9673Z" fill="white"/>
</svg>
