<svg width="35" height="46" viewBox="0 0 35 46" fill="none" xmlns="http://www.w3.org/2000/svg">
<path d="M16.9909 0.917248C7.92259 1.18907 0.93219 9.10025 0.93219 18.1721V40.946C0.93219 42.1766 2.41898 42.7918 3.28879 41.922L5.43915 40.323C6.01384 39.8959 6.8198 39.9787 7.29526 40.5137L11.0014 44.6859C11.5408 45.2252 12.4149 45.2252 12.9542 44.6859L16.4679 40.7295C17.0176 40.1107 17.9832 40.1107 18.532 40.7295L22.0458 44.6859C22.5851 45.2252 23.4592 45.2252 23.9985 44.6859L27.7047 40.5137C28.1802 39.9787 28.9861 39.895 29.5608 40.323L31.7112 41.922C32.581 42.7918 34.0678 42.1757 34.0678 40.946V17.4774C34.0678 8.15795 26.3732 0.635939 16.9909 0.917248ZM11.9774 20.2387C10.4526 20.2387 9.21609 19.0022 9.21609 17.4774C9.21609 15.9526 10.4526 14.7161 11.9774 14.7161C13.5021 14.7161 14.7387 15.9526 14.7387 17.4774C14.7387 19.0022 13.5021 20.2387 11.9774 20.2387ZM23.0226 20.2387C21.4978 20.2387 20.2613 19.0022 20.2613 17.4774C20.2613 15.9526 21.4978 14.7161 23.0226 14.7161C24.5473 14.7161 25.7839 15.9526 25.7839 17.4774C25.7839 19.0022 24.5473 20.2387 23.0226 20.2387Z" fill="#3D1AC6"/>
</svg>
