<svg width="242" height="56" viewBox="0 0 242 56" fill="none" xmlns="http://www.w3.org/2000/svg">
<path d="M16.0587 0.917248C6.9904 1.18907 0 9.10025 0 18.1721V40.946C0 42.1766 1.48679 42.7918 2.3566 41.922L4.50696 40.323C5.08165 39.8959 5.88761 39.9787 6.36307 40.5137L10.0693 44.6859C10.6086 45.2252 11.4827 45.2252 12.022 44.6859L15.5358 40.7295C16.0854 40.1107 17.051 40.1107 17.5998 40.7295L21.1136 44.6859C21.6529 45.2252 22.527 45.2252 23.0663 44.6859L26.7725 40.5137C27.248 39.9787 28.0539 39.895 28.6286 40.323L30.779 41.922C31.6488 42.7918 33.1356 42.1757 33.1356 40.946V17.4774C33.1356 8.15795 25.4411 0.635939 16.0587 0.917248ZM11.0452 20.2387C9.52044 20.2387 8.2839 19.0022 8.2839 17.4774C8.2839 15.9526 9.52044 14.7161 11.0452 14.7161C12.57 14.7161 13.8065 15.9526 13.8065 17.4774C13.8065 19.0022 12.57 20.2387 11.0452 20.2387ZM22.0904 20.2387C20.5656 20.2387 19.3291 19.0022 19.3291 17.4774C19.3291 15.9526 20.5656 14.7161 22.0904 14.7161C23.6151 14.7161 24.8517 15.9526 24.8517 17.4774C24.8517 19.0022 23.6151 20.2387 22.0904 20.2387Z" fill="#3D1AC6"/>
<path d="M56.9909 10.9172C47.9226 11.1891 40.9322 19.1002 40.9322 28.1721V50.946C40.9322 52.1766 42.419 52.7918 43.2888 51.922L45.4391 50.323C46.0138 49.8959 46.8198 49.9787 47.2953 50.5137L51.0014 54.6859C51.5408 55.2252 52.4149 55.2252 52.9542 54.6859L56.4679 50.7295C57.0176 50.1107 57.9832 50.1107 58.532 50.7295L62.0458 54.6859C62.5851 55.2252 63.4592 55.2252 63.9985 54.6859L67.7047 50.5137C68.1802 49.9787 68.9861 49.895 69.5608 50.323L71.7112 51.922C72.581 52.7918 74.0678 52.1757 74.0678 50.946V27.4774C74.0678 18.1579 66.3732 10.6359 56.9909 10.9172ZM51.9774 30.2387C50.4526 30.2387 49.2161 29.0022 49.2161 27.4774C49.2161 25.9526 50.4526 24.7161 51.9774 24.7161C53.5021 24.7161 54.7387 25.9526 54.7387 27.4774C54.7387 29.0022 53.5021 30.2387 51.9774 30.2387ZM63.0226 30.2387C61.4978 30.2387 60.2613 29.0022 60.2613 27.4774C60.2613 25.9526 61.4978 24.7161 63.0226 24.7161C64.5473 24.7161 65.7839 25.9526 65.7839 27.4774C65.7839 29.0022 64.5473 30.2387 63.0226 30.2387Z" fill="#FF5823"/>
<path d="M97.9231 0.917248C88.8548 1.18907 81.8644 9.10025 81.8644 18.1721V40.946C81.8644 42.1766 83.3512 42.7918 84.221 41.922L86.3714 40.323C86.9461 39.8959 87.752 39.9787 88.2275 40.5137L91.9337 44.6859C92.473 45.2252 93.3471 45.2252 93.8864 44.6859L97.4002 40.7295C97.9498 40.1107 98.9154 40.1107 99.4642 40.7295L102.978 44.6859C103.517 45.2252 104.391 45.2252 104.931 44.6859L108.637 40.5137C109.112 39.9787 109.918 39.895 110.493 40.323L112.643 41.922C113.513 42.7918 115 42.1757 115 40.946V17.4774C115 8.15795 107.305 0.635939 97.9231 0.917248ZM92.9096 20.2387C91.3849 20.2387 90.1483 19.0022 90.1483 17.4774C90.1483 15.9526 91.3849 14.7161 92.9096 14.7161C94.4344 14.7161 95.6709 15.9526 95.6709 17.4774C95.6709 19.0022 94.4344 20.2387 92.9096 20.2387ZM103.955 20.2387C102.43 20.2387 101.194 19.0022 101.194 17.4774C101.194 15.9526 102.43 14.7161 103.955 14.7161C105.48 14.7161 106.716 15.9526 106.716 17.4774C106.716 19.0022 105.48 20.2387 103.955 20.2387Z" fill="#3D1AC6"/>
<path d="M143.059 10.9172C133.99 11.1891 127 19.1002 127 28.1721V50.946C127 52.1766 128.487 52.7918 129.357 51.922L131.507 50.323C132.082 49.8959 132.888 49.9787 133.363 50.5137L137.069 54.6859C137.609 55.2252 138.483 55.2252 139.022 54.6859L142.536 50.7295C143.085 50.1107 144.051 50.1107 144.6 50.7295L148.114 54.6859C148.653 55.2252 149.527 55.2252 150.066 54.6859L153.773 50.5137C154.248 49.9787 155.054 49.895 155.629 50.323L157.779 51.922C158.649 52.7918 160.136 52.1757 160.136 50.946V27.4774C160.136 18.1579 152.441 10.6359 143.059 10.9172ZM138.045 30.2387C136.52 30.2387 135.284 29.0022 135.284 27.4774C135.284 25.9526 136.52 24.7161 138.045 24.7161C139.57 24.7161 140.806 25.9526 140.806 27.4774C140.806 29.0022 139.57 30.2387 138.045 30.2387ZM149.09 30.2387C147.566 30.2387 146.329 29.0022 146.329 27.4774C146.329 25.9526 147.566 24.7161 149.09 24.7161C150.615 24.7161 151.852 25.9526 151.852 27.4774C151.852 29.0022 150.615 30.2387 149.09 30.2387Z" fill="#FF5823"/>
<path d="M183.991 0.917248C174.923 1.18907 167.932 9.10025 167.932 18.1721V40.946C167.932 42.1766 169.419 42.7918 170.289 41.922L172.439 40.323C173.014 39.8959 173.82 39.9787 174.295 40.5137L178.001 44.6859C178.541 45.2252 179.415 45.2252 179.954 44.6859L183.468 40.7295C184.018 40.1107 184.983 40.1107 185.532 40.7295L189.046 44.6859C189.585 45.2252 190.459 45.2252 190.999 44.6859L194.705 40.5137C195.18 39.9787 195.986 39.895 196.561 40.323L198.711 41.922C199.581 42.7918 201.068 42.1757 201.068 40.946V17.4774C201.068 8.15795 193.373 0.635939 183.991 0.917248ZM178.977 20.2387C177.453 20.2387 176.216 19.0022 176.216 17.4774C176.216 15.9526 177.453 14.7161 178.977 14.7161C180.502 14.7161 181.739 15.9526 181.739 17.4774C181.739 19.0022 180.502 20.2387 178.977 20.2387ZM190.023 20.2387C188.498 20.2387 187.261 19.0022 187.261 17.4774C187.261 15.9526 188.498 14.7161 190.023 14.7161C191.547 14.7161 192.784 15.9526 192.784 17.4774C192.784 19.0022 191.547 20.2387 190.023 20.2387Z" fill="#3D1AC6"/>
<path d="M224.923 10.9172C215.855 11.1891 208.864 19.1002 208.864 28.1721V50.946C208.864 52.1766 210.351 52.7918 211.221 51.922L213.371 50.323C213.946 49.8959 214.752 49.9787 215.227 50.5137L218.934 54.6859C219.473 55.2252 220.347 55.2252 220.886 54.6859L224.4 50.7295C224.95 50.1107 225.915 50.1107 226.464 50.7295L229.978 54.6859C230.517 55.2252 231.391 55.2252 231.931 54.6859L235.637 50.5137C236.112 49.9787 236.918 49.895 237.493 50.323L239.643 51.922C240.513 52.7918 242 52.1757 242 50.946V27.4774C242 18.1579 234.305 10.6359 224.923 10.9172ZM219.91 30.2387C218.385 30.2387 217.148 29.0022 217.148 27.4774C217.148 25.9526 218.385 24.7161 219.91 24.7161C221.434 24.7161 222.671 25.9526 222.671 27.4774C222.671 29.0022 221.434 30.2387 219.91 30.2387ZM230.955 30.2387C229.43 30.2387 228.194 29.0022 228.194 27.4774C228.194 25.9526 229.43 24.7161 230.955 24.7161C232.48 24.7161 233.716 25.9526 233.716 27.4774C233.716 29.0022 232.48 30.2387 230.955 30.2387Z" fill="#FF5823"/>
</svg>
